<svg width="42" height="42" viewBox="0 0 42 42" fill="none" xmlns="http://www.w3.org/2000/svg">
<path d="M25.886 36.5616C24.9668 37.4809 23.8826 38.0937 22.6333 38.4001C21.3841 38.7065 20.1349 38.7065 18.8857 38.4001C17.6364 38.0937 16.5522 37.4809 15.633 36.5616L14.6077 35.5363L20.017 30.1269L20.7595 30.8694L30.7297 20.8992L28.6084 18.7779L18.3553 29.0309C17.4361 29.9502 16.3519 30.563 15.1026 30.8694C13.8534 31.1758 12.6042 31.1758 11.355 30.8694C10.1058 30.563 9.02153 29.9502 8.10229 29.0309L5.37993 26.3086C4.46069 25.3893 3.84786 24.3051 3.54145 23.0559C3.23504 21.8067 3.23504 20.5574 3.54145 19.3082C3.84786 18.059 4.46069 16.9748 5.37993 16.0555L15.9158 5.51963C16.8586 4.57682 17.9546 3.95221 19.2039 3.6458C20.4531 3.33939 21.7023 3.33938 22.9515 3.6458C24.2008 3.95221 25.285 4.56504 26.2042 5.48427L27.2295 6.50958L21.7848 11.9543L21.0423 11.2118L11.0721 21.182L13.1935 23.3034L23.4465 13.0503C24.3893 12.1075 25.4853 11.4829 26.7346 11.1765C27.9838 10.8701 29.233 10.8701 30.4822 11.1765C31.7314 11.4829 32.8157 12.0957 33.7349 13.015L36.4573 15.7373C37.3765 16.6566 37.9893 17.7408 38.2957 18.99C38.6022 20.2392 38.6022 21.4885 38.2957 22.7377C37.9893 23.9869 37.3647 25.0829 36.4219 26.0257L25.886 36.5616Z" fill="black"/>
</svg>
