<svg width="211" height="211" viewBox="0 0 211 211" fill="none" xmlns="http://www.w3.org/2000/svg">
<path d="M23.3587 121.39C19.2608 116.145 16.8231 110.253 16.0454 103.714C15.2677 97.174 16.0472 90.8257 18.3838 84.6685C20.7205 78.5114 24.5113 73.3839 29.7563 69.286L35.6065 64.7154L59.7207 95.5802L55.4843 98.89L99.9302 155.778L112.034 146.321L66.3273 87.8196C62.2295 82.5746 59.7917 76.6823 59.0141 70.1428C58.2364 63.6032 59.0159 57.2549 61.3525 51.0977C63.6891 44.9406 67.4799 39.8131 72.7249 35.7153L88.2582 23.5793C93.5032 19.4815 99.3955 17.0437 105.935 16.2661C112.475 15.4884 118.823 16.2679 124.98 18.6045C131.137 20.9411 136.265 24.7319 140.363 29.9769L187.33 90.0927C191.533 95.4722 194.023 101.432 194.801 107.971C195.579 114.511 194.799 120.859 192.463 127.016C190.126 133.173 186.335 138.301 181.09 142.399L175.24 146.969L150.968 115.903L155.204 112.593L110.759 55.705L98.6547 65.1616L144.361 123.664C148.564 129.043 151.055 135.003 151.832 141.542C152.61 148.082 151.83 154.43 149.494 160.587C147.157 166.744 143.366 171.872 138.121 175.97L122.588 188.105C117.343 192.203 111.451 194.641 104.911 195.419C98.3718 196.196 92.0235 195.417 85.8663 193.08C79.7092 190.744 74.5292 186.886 70.3263 181.506L23.3587 121.39Z" fill="black"/>
</svg>
