<svg width="42" height="42" viewBox="0 0 42 42" fill="none" xmlns="http://www.w3.org/2000/svg">
<path d="M26.0771 36.7527C25.1578 37.6719 24.0736 38.2847 22.8244 38.5911C21.5751 38.8975 20.3259 38.8975 19.0767 38.5911C17.8275 38.2847 16.7433 37.6719 15.824 36.7527L14.7987 35.7274L20.2081 30.318L20.9505 31.0604L30.9207 21.0902L28.7994 18.9689L18.5464 29.222C17.6271 30.1412 16.5429 30.754 15.2937 31.0604C14.0445 31.3669 12.7952 31.3669 11.546 31.0604C10.2968 30.754 9.21257 30.1412 8.29333 29.222L5.57097 26.4996C4.65173 25.5804 4.0389 24.4961 3.73249 23.2469C3.42608 21.9977 3.42608 20.7485 3.73249 19.4993C4.0389 18.25 4.65173 17.1658 5.57097 16.2466L16.1069 5.71067C17.0497 4.76786 18.1457 4.14325 19.3949 3.83684C20.6441 3.53043 21.8933 3.53042 23.1426 3.83684C24.3918 4.14325 25.476 4.75608 26.3953 5.67531L27.4206 6.70062L21.9758 12.1453L21.2334 11.4029L11.2632 21.3731L13.3845 23.4944L23.6375 13.2414C24.5804 12.2985 25.6764 11.6739 26.9256 11.3675C28.1748 11.0611 29.424 11.0611 30.6733 11.3675C31.9225 11.6739 33.0067 12.2868 33.9259 13.206L36.6483 15.9284C37.5675 16.8476 38.1804 17.9318 38.4868 19.1811C38.7932 20.4303 38.7932 21.6795 38.4868 22.9287C38.1804 24.1779 37.5558 25.274 36.613 26.2168L26.0771 36.7527Z" fill="white"/>
</svg>
